<svg xmlns="http://www.w3.org/2000/svg" width="270" height="269" viewBox="0 0 270 269" fill="none"><g clip-path="url(#clip0_488_2330)"><path opacity="0.2" d="M259.517 10.5087C252.779 3.79564 243.656 0.0262678 234.144 0.0262678C224.633 0.0262678 215.509 3.79564 208.772 10.5087L158.027 61.249L107.315 10.5087C103.983 7.17702 100.028 4.5342 95.6744 2.73113C91.321 0.928046 86.655 9.28783e-08 81.943 0C77.2309 -9.28783e-08 72.5649 0.928046 68.2115 2.73113C63.8581 4.5342 59.9025 7.17702 56.5706 10.5087C53.2386 13.8403 50.5956 17.7956 48.7924 22.1486C46.9891 26.5016 46.061 31.1672 46.061 35.8788C46.061 40.5905 46.9891 45.256 48.7924 49.6091C50.5956 53.9621 53.2386 57.9173 56.5706 61.249L107.315 111.989L-19.4972 238.791C-22.827 242.12 -25.4683 246.073 -27.2704 250.423C-29.0725 254.773 -30 259.436 -30 264.144C-30 268.853 -29.0725 273.516 -27.2704 277.866C-25.4683 282.216 -22.827 286.169 -19.4972 289.498C-16.1674 292.828 -12.2144 295.469 -7.86383 297.271C-3.51325 299.073 1.14967 300 5.85871 300C10.5677 300 15.2307 299.073 19.5812 297.271C23.9318 295.469 27.8848 292.828 31.2146 289.498L158.027 162.697L208.772 213.437C212.104 216.769 216.059 219.412 220.413 221.215C224.766 223.018 229.432 223.947 234.144 223.947C238.856 223.947 243.523 223.018 247.876 221.215C252.229 219.412 256.185 216.769 259.517 213.437V213.437C266.23 206.7 270 197.577 270 188.067C270 178.556 266.23 169.434 259.517 162.697L208.772 111.989L259.517 61.249C266.23 54.5122 270 45.3893 270 35.8788C270 26.3683 266.23 17.2455 259.517 10.5087V10.5087Z" fill="white"></path></g><defs><clipPath id="clip0_488_2330"><rect width="270" height="269" fill="white"></rect></clipPath></defs></svg>